#N canvas 524 148 450 300 10;
#X obj 25 43 inlet~;
#X obj 265 5 inlet~;
#X obj 195 85 inlet;
#X obj 250 60 *~;
#X obj 265 35 *~ -1;
#X obj 195 138 +~;
#X obj 215 165 *~;
#X obj 195 195 outlet~;
#X obj 261 165 block~ 1 1 1;
#N canvas 0 22 450 300 delwrite 0;
#X obj 26 26 inlet~;
#X obj 26 48 delwrite~ delay_line_\$1 \$2;
#X obj 26 70 outlet~;
#X connect 0 0 1 0;
#X restore 25 182 pd delwrite \$1 \$2;
#N canvas 0 22 450 300 delread 0;
#X obj 25 26 inlet;
#X obj 25 48 delread~ delay_line_\$1;
#X obj 25 70 outlet~;
#X connect 0 0 1 0;
#X connect 1 0 2 0;
#X restore 195 115 pd delread \$1;
#X connect 0 0 3 0;
#X connect 0 0 9 0;
#X connect 1 0 4 0;
#X connect 1 0 6 1;
#X connect 2 0 10 0;
#X connect 3 0 5 1;
#X connect 4 0 3 1;
#X connect 5 0 7 0;
#X connect 5 0 6 0;
#X connect 6 0 9 0;
#X connect 10 0 5 0;
