#N canvas 695 30 679 504 12;
#X obj 33 62 inlet~;
#X obj 61 114 rzero_rev~;
#X obj 61 141 rpole~;
#X obj 136 12 phasor~ 0.3;
#X obj 137 40 expr~ abs($v1-0.5);
#X obj 139 70 expr~ 0.97 - 0.6*$v1*$v1;
#X obj 57 176 rzero_rev~;
#X obj 57 203 rpole~;
#X obj 58 238 rzero_rev~;
#X obj 58 265 rpole~;
#X obj 57 288 rzero_rev~;
#X obj 57 315 rpole~;
#X obj 33 368 +~;
#X obj 15 87 noise~;
#X obj 25 429 dac~;
#X obj 279 401 delwrite~ sample 1;
#X obj 305 127 delread~ sample 1;
#X obj 294 176 +~;
#X obj 276 367 *~;
#X floatatom 338 315 5 0 0 0 - - -;
#X connect 1 0 2 0;
#X connect 2 0 6 0;
#X connect 3 0 4 0;
#X connect 4 0 5 0;
#X connect 5 0 1 1;
#X connect 5 0 2 1;
#X connect 5 0 6 1;
#X connect 5 0 7 1;
#X connect 5 0 8 1;
#X connect 5 0 9 1;
#X connect 5 0 10 1;
#X connect 5 0 11 1;
#X connect 6 0 7 0;
#X connect 7 0 8 0;
#X connect 8 0 9 0;
#X connect 9 0 10 0;
#X connect 10 0 11 0;
#X connect 11 0 12 1;
#X connect 11 0 18 0;
#X connect 12 0 14 0;
#X connect 12 0 14 1;
#X connect 13 0 12 0;
#X connect 13 0 17 0;
#X connect 16 0 17 1;
#X connect 17 0 1 0;
#X connect 18 0 15 0;
#X connect 19 0 18 1;
